<svg id="SvgjsSvg1000" xmlns="http://www.w3.org/2000/svg" version="1.1" xmlns:xlink="http://www.w3.org/1999/xlink" xmlns:svgjs="http://svgjs.com/svgjs" width="30" height="49" viewBox="0 0 30 49"><title>Shape 9</title><desc>Created with Avocode.</desc><defs id="SvgjsDefs1001"><clipPath id="SvgjsClipPath1010"><path id="SvgjsPath1009" d="M82 71.4174C82 79.4777 75.2842 86.0101 67 86.0101C58.7158 86.0101 52 79.4777 52 71.41739999999999C52 63.35939999999999 67 38.990099999999984 67 38.990099999999984C67 38.990099999999984 82 63.35939999999998 82 71.41739999999999Z " fill="#ffffff"></path></clipPath></defs><path id="SvgjsPath1007" d="M82 71.4174C82 79.4777 75.2842 86.0101 67 86.0101C58.7158 86.0101 52 79.4777 52 71.41739999999999C52 63.35939999999999 67 38.990099999999984 67 38.990099999999984C67 38.990099999999984 82 63.35939999999998 82 71.41739999999999Z " fill="#ffffff" fill-opacity="0" transform="matrix(1,0,0,1,-52,-38)"></path><path id="SvgjsPath1008" d="M82 71.4174C82 79.4777 75.2842 86.0101 67 86.0101C58.7158 86.0101 52 79.4777 52 71.41739999999999C52 63.35939999999999 67 38.990099999999984 67 38.990099999999984C67 38.990099999999984 82 63.35939999999998 82 71.41739999999999Z " fill-opacity="0" fill="#ffffff" stroke-dasharray="0" stroke-linejoin="round" stroke-linecap="round" stroke-opacity="1" stroke="#fd634e" stroke-miterlimit="50" stroke-width="10" clip-path="url(&quot;#SvgjsClipPath1010&quot;)" transform="matrix(1,0,0,1,-52,-38)"></path></svg>